;Layer: Drill PTH
;EasyEDA v6.3.22, 2020-02-01T09:52:18+01:00
;6a38883e4b2748c8978b3c8c793b862a,5bf1b712bda346c5934589caff60f8c7,10
;Gerber Generator version 0.2
M48
METRIC,LZ,000.000
;Holesize 1 = 0.305 METRIC
T01C0.305
;Holesize 2 = 0.701 METRIC
T02C0.701
;Holesize 3 = 0.889 METRIC
T03C0.889
;Holesize 4 = 0.915 METRIC
T04C0.915
;Holesize 5 = 1.000 METRIC
T05C1.000
;Holesize 6 = 1.001 METRIC
T06C1.001
;Holesize 7 = 1.101 METRIC
T07C1.101
;Holesize 8 = 1.200 METRIC
T08C1.200
%
G05
G90
T01
X+035829Y+038200
X+035829Y+036930
X+021859Y+045820
X+038369Y+045820
X+038369Y+031850
X+002561Y+025406
X+011500Y+033120
X+014200Y+030580
X+016800Y+027999
X+019299Y+025500
X+019299Y+015399
X+019299Y+035600
X+024300Y+022960
X+026999Y+020420
X+025800Y+017880
X+025800Y+007599
X+029500Y+007599
X+015399Y+029299
X+018100Y+026699
X+020299Y+024200
X+024999Y+021399
X+032699Y+015340
X+024200Y+047000
X+024200Y+035699
X+029399Y+049699
X+044200Y+021299
X+015699Y+042560
X+015699Y+050900
X+041099Y+050900
X+041099Y+039699
X+026200Y+040740
X+026200Y+048200
X+017100Y+040300
X+017100Y+052200
X+043099Y+052200
X+043200Y+035600
X+012999Y+025373
X+009699Y+032999
X+009699Y+038900
X+024399Y+052900
X+044700Y+037099
X+045399Y+040799
X+034099Y+034399
X+034099Y+042200
X+010299Y+006500
T02
X+013400Y+035549
X+013400Y+037050
T03
X+002999Y+047900
X+002999Y+045360
X+002999Y+042820
T04
X+007870Y+048359
X+010419Y+048359
X+012969Y+048359
X+012969Y+042559
X+010419Y+042559
X+007869Y+042559
T05
X+021859Y+043280
X+029479Y+043280
X+021859Y+040740
X+021859Y+038200
X+021859Y+033120
X+021859Y+035660
X+021859Y+030580
X+021859Y+015340
X+021859Y+020420
X+021859Y+017880
X+021859Y+022960
X+021859Y+025500
X+021859Y+028040
X+029479Y+028040
X+029479Y+025500
X+029479Y+022960
X+029479Y+017880
X+029479Y+020420
X+029479Y+015340
X+029479Y+030580
X+029479Y+035660
X+029479Y+033120
X+029479Y+038200
X+029479Y+040740
X+050800Y+051199
X+050800Y+048659
X+048260Y+051199
X+048260Y+048659
X+045720Y+051199
X+045720Y+048659
T06
X+050660Y+015200
X+002400Y+017740
X+050660Y+012660
X+050660Y+010120
X+050660Y+007580
X+050660Y+005040
X+050660Y+017740
X+050660Y+020280
X+050660Y+022820
X+050660Y+026884
X+050660Y+029424
X+050660Y+031964
X+050660Y+034504
X+050660Y+037044
X+050660Y+039584
X+050660Y+042124
X+050660Y+044664
X+002400Y+015200
X+002400Y+012660
X+002400Y+010120
X+002400Y+007580
X+002400Y+005040
X+002400Y+022820
X+002400Y+025360
X+002400Y+027900
X+002400Y+030440
X+002400Y+032980
X+002400Y+035520
X+047358Y+015200
X+047358Y+012660
X+047358Y+010120
X+047358Y+007580
X+047358Y+005040
X+047358Y+017740
X+047358Y+020280
X+047358Y+022820
X+047358Y+026884
X+047358Y+029424
X+047358Y+031964
X+047358Y+034504
X+047358Y+037044
X+047358Y+039584
X+047358Y+042124
X+047358Y+044664
X+005696Y+017707
X+005696Y+015167
X+005696Y+012627
X+005696Y+010087
X+005696Y+007547
X+005696Y+005007
X+005696Y+022787
X+005696Y+025327
X+005696Y+027867
X+005696Y+030407
X+005696Y+032947
X+005696Y+035487
X+002400Y+038060
X+005696Y+038027
T07
X+012840Y+011460
X+010300Y+011460
X+012840Y+014000
X+010300Y+014000
X+012840Y+016540
X+010300Y+016540
X+012840Y+019080
X+010300Y+019080
X+012970Y+001369
X+012970Y+003909
X+015510Y+001369
X+015510Y+003909
X+018050Y+001369
X+018050Y+003909
X+020590Y+001369
X+020590Y+003909
X+025670Y+001369
X+025670Y+003909
X+028210Y+001369
X+028210Y+003909
X+030750Y+001369
X+030750Y+003909
X+033290Y+001369
X+033290Y+003909
T08
X+035829Y+017880
X+035829Y+015340
X+035829Y+012800
X+035829Y+010260
X+035829Y+007720
X+035829Y+005180
M30
