G04 Layer: BottomLayer*
G04 EasyEDA v6.3.22, 2020-02-01T09:52:18+01:00*
G04 6a38883e4b2748c8978b3c8c793b862a,5bf1b712bda346c5934589caff60f8c7,10*
G04 Gerber Generator version 0.2*
G04 Scale: 100 percent, Rotated: No, Reflected: No *
G04 Dimensions in millimeters *
G04 leading zeros omitted , absolute positions ,3 integer and 3 decimal *
%FSLAX33Y33*%
%MOMM*%
G90*
G71D02*

%ADD10C,0.254000*%
%ADD11C,0.299999*%
%ADD12C,0.159995*%
%ADD13C,0.609600*%
%ADD15C,1.699997*%
%ADD16C,0.999998*%
%ADD17C,1.599997*%
%ADD18R,1.599997X1.599997*%
%ADD19C,1.624000*%
%ADD20C,1.799996*%
%ADD21R,1.799996X1.799996*%
%ADD22C,1.574800*%
%ADD23R,1.574800X1.574800*%
%ADD24C,1.524000*%
%ADD25C,1.499997*%

%LPD*%
G54D12*
G01X38369Y45820D02*
G01X39200Y46500D01*
G01X48500Y46500D01*
G54D10*
G01X38369Y31850D02*
G01X38529Y32010D01*
G01X46487Y32010D01*
G54D11*
G01X19300Y35600D02*
G01X21799Y35600D01*
G01X21859Y35660D01*
G01X21859Y25500D02*
G01X19300Y25500D01*
G01X29479Y22960D02*
G01X33739Y22960D01*
G01X35400Y21300D01*
G01X44200Y21300D01*
G54D10*
G01X29479Y38200D02*
G01X35829Y38200D01*
G01X35829Y36930D02*
G01X35989Y37090D01*
G01X46233Y37090D01*
G01X21859Y45820D02*
G01X38369Y45820D01*
G54D12*
G01X45399Y40799D02*
G01X45339Y40740D01*
G01X29479Y40740D01*
G54D11*
G01X20589Y1370D02*
G01X21170Y1370D01*
G01X22400Y2600D01*
G01X32060Y2600D01*
G01X33289Y1370D01*
G01X21859Y15340D02*
G01X19359Y15340D01*
G01X19300Y15400D01*
G01X29420Y40800D02*
G01X29479Y40740D01*
G54D25*
G01X2400Y25360D02*
G01X2515Y25360D01*
G01X2561Y25406D01*
G01X2561Y25406D01*
G54D12*
G01X21859Y33120D02*
G01X11500Y33120D01*
G01X21859Y30580D02*
G01X14200Y30580D01*
G01X21859Y28040D02*
G01X21819Y27999D01*
G01X16800Y27999D01*
G54D11*
G01X33289Y1370D02*
G01X35829Y3910D01*
G01X35829Y5180D01*
G54D12*
G01X21859Y22960D02*
G01X24300Y22960D01*
G01X21859Y20420D02*
G01X27000Y20420D01*
G01X21859Y17880D02*
G01X25800Y17880D01*
G01X25800Y7600D02*
G01X29500Y7600D01*
G01X29479Y30580D02*
G01X27980Y30580D01*
G01X26700Y29300D01*
G01X15400Y29300D01*
G01X29479Y28040D02*
G01X28240Y28040D01*
G01X26900Y26700D01*
G01X18100Y26700D01*
G01X29479Y25500D02*
G01X28400Y25500D01*
G01X27100Y24200D01*
G01X20300Y24200D01*
G54D11*
G01X29479Y22960D02*
G01X26560Y22960D01*
G01X25000Y21400D01*
G54D12*
G01X29479Y15340D02*
G01X32700Y15340D01*
G54D11*
G01X25669Y3910D02*
G01X25669Y5530D01*
G01X25100Y6100D01*
G01X13700Y6100D01*
G01X12999Y5300D01*
G01X12969Y3910D01*
G01X9699Y38900D02*
G01X9699Y32999D01*
G01X9699Y32999D01*
G01X10420Y48360D02*
G01X10420Y47579D01*
G01X11000Y47000D01*
G01X24200Y47000D01*
G01X24200Y35700D02*
G01X29439Y35700D01*
G01X29479Y35660D01*
G01X7870Y48360D02*
G01X7870Y49170D01*
G01X8399Y49699D01*
G01X29399Y49699D01*
G01X12970Y42560D02*
G01X15700Y42560D01*
G01X15700Y50900D02*
G01X41100Y50900D01*
G01X41099Y39699D02*
G01X41215Y39584D01*
G01X47358Y39584D01*
G01X29479Y40740D02*
G01X26200Y40740D01*
G01X26200Y48200D02*
G01X13129Y48200D01*
G01X12969Y48360D01*
G01X10420Y42560D02*
G01X10420Y41879D01*
G01X12000Y40300D01*
G01X17100Y40300D01*
G01X17100Y52200D02*
G01X43100Y52200D01*
G01X43200Y35600D02*
G01X44250Y34550D01*
G01X46464Y34550D01*
G01X19299Y25500D02*
G01X19172Y25373D01*
G01X12999Y25373D01*
G01X12999Y25373D02*
G01X6917Y25373D01*
G01X2999Y42820D02*
G01X2999Y42600D01*
G01X5299Y40300D01*
G01X7100Y40300D01*
G01X8699Y38700D01*
G01X8699Y32100D01*
G01X7053Y30453D01*
G01X6663Y30453D01*
G54D12*
G01X42100Y52900D02*
G01X24400Y52900D01*
G01X48260Y51200D02*
G01X46700Y52900D01*
G01X46500Y52900D01*
G01X46000Y52900D01*
G01X42100Y52900D01*
G01X45720Y51200D02*
G01X44520Y50000D01*
G01X39400Y50000D01*
G01X39100Y49700D01*
G01X29400Y49700D01*
G01X50800Y51200D02*
G01X51400Y50600D01*
G01X51900Y50600D01*
G01X52700Y49800D01*
G01X52700Y43000D01*
G01X51870Y42170D01*
G01X51776Y42170D01*
G01X21859Y35660D02*
G01X23119Y34400D01*
G01X34100Y34400D01*
G01X34099Y42200D02*
G01X34129Y42170D01*
G01X47358Y42124D01*
G01X48500Y46500D02*
G01X50660Y48660D01*
G01X50800Y48660D01*
G54D11*
G01X19300Y15400D02*
G01X17900Y14000D01*
G01X12840Y14000D01*
G01X12970Y3909D02*
G01X10380Y6500D01*
G01X10300Y6500D01*
G01X7869Y42559D02*
G01X5069Y45360D01*
G01X2999Y45360D01*
G54D25*
G01X2400Y35520D02*
G01X5702Y35520D01*
G01X5702Y32980D02*
G01X2400Y32980D01*
G01X5448Y30440D02*
G01X2400Y30440D01*
G01X2400Y27900D02*
G01X5702Y27900D01*
G01X2400Y25360D02*
G01X5702Y25360D01*
G01X2400Y22820D02*
G01X5702Y22820D01*
G01X2400Y5040D02*
G01X5702Y5040D01*
G01X5702Y7580D02*
G01X2400Y7580D01*
G01X5702Y10120D02*
G01X2400Y10120D01*
G01X5702Y12660D02*
G01X2400Y12660D01*
G01X2400Y15200D02*
G01X5702Y15200D01*
G01X2400Y17740D02*
G01X5702Y17740D01*
G01X47358Y5040D02*
G01X50406Y5040D01*
G01X50660Y5294D01*
G01X50660Y7580D02*
G01X47358Y7580D01*
G01X47358Y10120D02*
G01X50660Y10120D01*
G01X47358Y12660D02*
G01X50660Y12660D01*
G01X47358Y15200D02*
G01X50660Y15200D01*
G01X50660Y17740D02*
G01X47358Y17740D01*
G01X47358Y20280D02*
G01X50660Y20280D01*
G01X50660Y22820D02*
G01X47612Y22820D01*
G01X47358Y23074D01*
G01X47358Y26884D02*
G01X50660Y26884D01*
G01X50660Y29424D02*
G01X47358Y29424D01*
G01X47358Y31964D02*
G01X50660Y31964D01*
G01X47358Y34504D02*
G01X50660Y34504D01*
G01X47104Y37044D02*
G01X50660Y37044D01*
G01X47358Y39584D02*
G01X50660Y39584D01*
G01X47358Y42124D02*
G01X50660Y42124D01*
G01X47358Y44664D02*
G01X50660Y44664D01*
G01X2400Y38060D02*
G01X5702Y38060D01*
G54D15*
G01X21859Y43280D03*
G01X29479Y43280D03*
G01X21859Y40740D03*
G01X21859Y38200D03*
G01X21859Y33120D03*
G01X21859Y35660D03*
G01X21859Y30580D03*
G01X21859Y15340D03*
G01X21859Y20420D03*
G01X21859Y17880D03*
G01X21859Y22960D03*
G01X21859Y25500D03*
G01X21859Y28040D03*
G01X29479Y28040D03*
G01X29479Y25500D03*
G01X29479Y22960D03*
G01X29479Y17880D03*
G01X29479Y20420D03*
G01X29479Y15340D03*
G01X29479Y30580D03*
G01X29479Y35660D03*
G01X29479Y33120D03*
G01X29479Y38200D03*
G01X29479Y40740D03*
G54D16*
G01X13399Y35549D03*
G01X13399Y37050D03*
G54D17*
G01X50800Y51199D03*
G01X50800Y48659D03*
G01X48260Y51199D03*
G01X48260Y48659D03*
G01X45720Y51199D03*
G54D18*
G01X45720Y48659D03*
G54D19*
G01X12839Y11459D03*
G01X10299Y11459D03*
G01X12839Y13999D03*
G01X10299Y13999D03*
G01X12839Y16539D03*
G01X10299Y16539D03*
G01X12839Y19079D03*
G01X10299Y19079D03*
G54D20*
G01X35829Y17880D03*
G01X35829Y15340D03*
G01X35829Y12800D03*
G01X35829Y10260D03*
G01X35829Y7720D03*
G54D21*
G01X35829Y5180D03*
G54D22*
G01X2999Y47900D03*
G01X2999Y45360D03*
G54D23*
G01X2999Y42820D03*
G54D24*
G01X7870Y48359D03*
G01X10419Y48359D03*
G01X12969Y48359D03*
G01X12969Y42559D03*
G01X10419Y42559D03*
G01X7869Y42559D03*
G54D19*
G01X12970Y1369D03*
G01X12970Y3909D03*
G01X15510Y1369D03*
G01X15510Y3909D03*
G01X18050Y1369D03*
G01X18050Y3909D03*
G01X20590Y1369D03*
G01X20590Y3909D03*
G01X25670Y1369D03*
G01X25670Y3909D03*
G01X28210Y1369D03*
G01X28210Y3909D03*
G01X30750Y1369D03*
G01X30750Y3909D03*
G01X33290Y1369D03*
G01X33290Y3909D03*
G54D13*
G01X35829Y38200D03*
G01X35829Y36930D03*
G01X21859Y45820D03*
G01X38369Y45820D03*
G01X38369Y31850D03*
G01X2561Y25406D03*
G01X11500Y33120D03*
G01X14200Y30580D03*
G01X16800Y27999D03*
G01X19299Y25500D03*
G01X19299Y15399D03*
G01X19299Y35600D03*
G01X24300Y22960D03*
G01X26999Y20420D03*
G01X25800Y17880D03*
G01X25800Y7599D03*
G01X29500Y7599D03*
G01X15399Y29299D03*
G01X18100Y26699D03*
G01X20299Y24200D03*
G01X24999Y21399D03*
G01X32699Y15340D03*
G01X24200Y47000D03*
G01X24200Y35699D03*
G01X29399Y49699D03*
G01X44200Y21299D03*
G01X15699Y42560D03*
G01X15699Y50900D03*
G01X41099Y50900D03*
G01X41099Y39699D03*
G01X26200Y40740D03*
G01X26200Y48200D03*
G01X17100Y40300D03*
G01X17100Y52200D03*
G01X43099Y52200D03*
G01X43200Y35600D03*
G01X12999Y25373D03*
G01X9699Y32999D03*
G01X9699Y38900D03*
G01X24399Y52900D03*
G01X44700Y37099D03*
G01X45399Y40799D03*
G01X34099Y34399D03*
G01X34099Y42200D03*
G01X10299Y6500D03*
G54D20*
G01X51010Y15200D02*
G01X50310Y15200D01*
G01X2750Y17740D02*
G01X2050Y17740D01*
G01X51010Y12660D02*
G01X50310Y12660D01*
G01X51010Y10120D02*
G01X50310Y10120D01*
G01X51010Y7580D02*
G01X50310Y7580D01*
G01X51010Y5040D02*
G01X50310Y5040D01*
G01X51010Y17740D02*
G01X50310Y17740D01*
G01X51010Y20280D02*
G01X50310Y20280D01*
G01X51010Y22820D02*
G01X50310Y22820D01*
G01X51010Y26884D02*
G01X50310Y26884D01*
G01X51010Y29424D02*
G01X50310Y29424D01*
G01X51010Y31964D02*
G01X50310Y31964D01*
G01X51010Y34504D02*
G01X50310Y34504D01*
G01X51010Y37044D02*
G01X50310Y37044D01*
G01X51010Y39584D02*
G01X50310Y39584D01*
G01X51010Y42124D02*
G01X50310Y42124D01*
G01X51010Y44664D02*
G01X50310Y44664D01*
G01X2750Y15200D02*
G01X2050Y15200D01*
G01X2750Y12660D02*
G01X2050Y12660D01*
G01X2750Y10120D02*
G01X2050Y10120D01*
G01X2750Y7580D02*
G01X2050Y7580D01*
G01X2750Y5040D02*
G01X2050Y5040D01*
G01X2750Y22820D02*
G01X2050Y22820D01*
G01X2750Y25360D02*
G01X2050Y25360D01*
G01X2750Y27900D02*
G01X2050Y27900D01*
G01X2750Y30440D02*
G01X2050Y30440D01*
G01X2750Y32980D02*
G01X2050Y32980D01*
G01X2750Y35520D02*
G01X2050Y35520D01*
G01X47708Y15200D02*
G01X47008Y15200D01*
G01X47708Y12660D02*
G01X47008Y12660D01*
G01X47708Y10120D02*
G01X47008Y10120D01*
G01X47708Y7580D02*
G01X47008Y7580D01*
G01X47708Y5040D02*
G01X47008Y5040D01*
G01X47708Y17740D02*
G01X47008Y17740D01*
G01X47708Y20280D02*
G01X47008Y20280D01*
G01X47708Y22820D02*
G01X47008Y22820D01*
G01X47708Y26884D02*
G01X47008Y26884D01*
G01X47708Y29424D02*
G01X47008Y29424D01*
G01X47708Y31964D02*
G01X47008Y31964D01*
G01X47708Y34504D02*
G01X47008Y34504D01*
G01X47708Y37044D02*
G01X47008Y37044D01*
G01X47708Y39584D02*
G01X47008Y39584D01*
G01X47708Y42124D02*
G01X47008Y42124D01*
G01X47708Y44664D02*
G01X47008Y44664D01*
G01X6046Y17707D02*
G01X5346Y17707D01*
G01X6046Y15167D02*
G01X5346Y15167D01*
G01X6046Y12627D02*
G01X5346Y12627D01*
G01X6046Y10087D02*
G01X5346Y10087D01*
G01X6046Y7547D02*
G01X5346Y7547D01*
G01X6046Y5007D02*
G01X5346Y5007D01*
G01X6046Y22787D02*
G01X5346Y22787D01*
G01X6046Y25327D02*
G01X5346Y25327D01*
G01X6046Y27867D02*
G01X5346Y27867D01*
G01X6046Y30407D02*
G01X5346Y30407D01*
G01X6046Y32947D02*
G01X5346Y32947D01*
G01X6046Y35487D02*
G01X5346Y35487D01*
G01X2750Y38060D02*
G01X2050Y38060D01*
G01X6046Y38027D02*
G01X5346Y38027D01*
M00*
M02*
